<?xml version="1.0" encoding="UTF-8" standalone="no"?>
<svg xmlns="http://www.w3.org/2000/svg" width="200" height="200" viewBox="0 0 200 200" fill="none">
  <rect width="200" height="200" rx="40" fill="#4A90E2" />
  
  <!-- Pill shape -->
  <path d="M60 80C60 68.9543 68.9543 60 80 60H120C131.046 60 140 68.9543 140 80V120C140 131.046 131.046 140 120 140H80C68.9543 140 60 131.046 60 120V80Z" fill="white"/>
  
  <!-- Line dividing pill -->
  <rect x="98" y="60" width="4" height="80" fill="#4A90E2"/>
  
  <!-- Clock hand (minute) -->
  <rect x="99" y="80" width="2" height="35" rx="1" fill="#4A90E2" transform="rotate(45 99 80)"/>
  
  <!-- Clock hand (hour) -->
  <rect x="99" y="80" width="3" height="20" rx="1.5" fill="#4A90E2" transform="rotate(-60 99 80)"/>
  
  <!-- Clock center -->
  <circle cx="100" cy="80" r="4" fill="#4A90E2"/>
  
  <!-- Checkmark -->
  <path d="M75 120L85 130L105 110" stroke="#4A90E2" stroke-width="6" stroke-linecap="round" stroke-linejoin="round"/>
</svg>