<svg xmlns="http://www.w3.org/2000/svg" viewBox="0 0 500 500">
  <rect fill="#f0f0f0" x="0" y="0" width="500" height="500" rx="80" ry="80" />
  <g transform="translate(80, 80) scale(0.68 0.68)">
    <rect fill="#55aa88" x="20" y="20" width="400" height="400" rx="60" ry="60" stroke="#55aa88" stroke-width="30" />
    <rect fill="#ffffff" x="60" y="60" width="320" height="320" rx="20" ry="20" />
    <path d="M120 40 L120 120 L40 120 L40 40 C40 40 80 40 120 40 Z" fill="#182a3a" />
    <path d="M440 40 L440 120 L360 120 L360 40 C360 40 400 40 440 40 Z" fill="#182a3a" />
    <path d="M340 340 C220 480 100 300 180 240 L260 160 C320 100 500 220 340 340 Z" fill="#182a3a" />
    <path d="M260 160 L180 240 L260 320 L340 240 Z" fill="#ffffff" />
  </g>
</svg>